inDegrees=yes
name=lift_l_res.mot
DataType=double
version=3
OpenSimVersion=4.4-2022-07-23-0e9fedc
endheader
time	pelvis_tilt	pelvis_list	pelvis_rotation	pelvis_tx	pelvis_ty	pelvis_tz	hip_flexion_r	hip_adduction_r	hip_rotation_r	knee_angle_r	knee_angle_r_beta	ankle_angle_r	subtalar_angle_r	mtp_angle_r	hip_flexion_l	hip_adduction_l	hip_rotation_l	knee_angle_l	knee_angle_l_beta	ankle_angle_l	subtalar_angle_l	mtp_angle_l	lumbar_extension	lumbar_bending	lumbar_rotation	arm_flex_r	arm_add_r	arm_rot_r	elbow_flex_r	pro_sup_r	wrist_flex_r	wrist_dev_r	arm_flex_l	arm_add_l	arm_rot_l	elbow_flex_l	pro_sup_l	wrist_flex_l	wrist_dev_l
25	-0.3727092837191908	0.5471437736436502	89.72616571223425	0	0.9399999999999999	0	43.61227323843641	-10.33092201607614	0	60.0285951439779	1.047696630609094	-5.077123666021535	0	0	43.61227323843641	-10.33092201607614	0	60.0285951439779	1.047696630609094	-5.077123666021535	0	0	-0.8341021672234523	-1.180458398300458	0.9662944680327055	0	-13.1878998540213	0	76.58789268888	44.91473605934593	0	0	47.34994367306874	-0.8419822336839735	-35.83251024007837	0.003489431156673632	44.91473605934593	0	0
26	-0.3704502793507019	0.55026052482439	89.71977992641243	0	0.9399999999999999	0	43.61284325122157	-10.3304457803528	0	60.02858599689426	1.047696470962368	-5.07697881723394	0	0	43.61284325122157	-10.3304457803528	0	60.02858599689426	1.047696470962368	-5.07697881723394	0	0	-0.8447149590491975	-1.187247844970485	0.9603476871759831	0	-13.18828019440146	0	76.58724046401491	44.91483306620227	0	0	47.03882427199515	0.2071380239922793	-36.1359746292777	0.003602374419565386	44.91483306620227	0	0
27	-0.3571888481085922	0.540775055087743	89.71944283098166	0	0.9399999999999999	0	43.6130828507829	-10.33025289856719	0	60.02858203754396	1.047696401858669	-5.076920573613869	0	0	43.6130828507829	-10.33025289856719	0	60.02858203754396	1.047696401858669	-5.076920573613869	0	0	-0.8205206843093387	-1.168509784287074	0.9727495545455697	0	-13.18844347626924	0	76.58696630914413	44.91487261504331	0	0	47.15415121997852	-0.05337759138563603	-35.94975498303693	0.003601397023066604	44.91487261504331	0	0
28	-0.3802599962497981	0.5614223972161279	89.69528829735241	0	0.9399999999999999	0	43.61329570475515	-10.33007602725469	0	60.02857860954671	1.04769634202883	-5.076866847540818	0	0	43.61329570475515	-10.33007602725469	0	60.02857860954671	1.04769634202883	-5.076866847540818	0	0	-0.8591459830830169	-1.191544385338745	1.004744704927884	0	-13.18858588942096	0	76.58672275578429	44.91490868199477	0	0	46.89069344459663	-0.3351284745772437	-36.36273114279639	0.003576397010822031	44.91490868199477	0	0
29	-0.3693022396816935	0.5474207453649402	89.71802136887835	0	0.9399999999999999	0	43.61348588121817	-10.3299192677851	0	60.02857552675244	1.04769628822392	-5.076819303907401	0	0	43.61348588121817	-10.3299192677851	0	60.02857552675244	1.04769628822392	-5.076819303907401	0	0	-0.836498644038101	-1.178515098612624	0.9807352923677467	0	-13.18871372824252	0	76.58650515096473	44.91494069296413	0	0	46.8865989616932	-0.3372690989372101	-36.3717511027716	0.003576807185370848	44.91494069296413	0	0
30	-0.380656885977712	0.5865020421739739	89.73183700209871	0	0.9399999999999999	0	43.61368433887719	-10.32975440724268	0	60.02857233181561	1.047696232461752	-5.076769238839794	0	0	43.61368433887719	-10.32975440724268	0	60.02857233181561	1.047696232461752	-5.076769238839794	0	0	-0.9063950977385588	-1.205017069486339	0.943282306107069	0	-13.18884648691959	0	76.58627807026184	44.91497431579821	0	0	46.31545657797336	-0.1436249177307559	-36.3487300588753	0.003637134239155992	44.91497431579821	0	0
31	-0.3716088706176493	0.5536037302146787	89.72577081710297	0	0.9399999999999999	0	43.61387548298902	-10.32959698424489	0	60.02856923276853	1.047696178373177	-5.076721509554636	0	0	43.61387548298902	-10.32959698424489	0	60.02856923276853	1.047696178373177	-5.076721509554636	0	0	-0.8510166812809797	-1.182646876860109	0.9624535192603529	0	-13.18897500514698	0	76.58605935825823	44.91500646970206	0	0	46.29046960535206	-0.1253594127887744	-36.35373348385828	0.003638411346228311	44.91500646970206	0	0
32	-0.3748906484771348	0.5495987544668374	89.72298498698265	0	0.9399999999999999	0	43.61434750747215	-10.32920447286357	0	60.02856164388623	1.047696045922195	-5.076602308790253	0	0	43.61434750747215	-10.32920447286357	0	60.02856164388623	1.047696045922195	-5.076602308790253	0	0	-0.8468810375042094	-1.198692402843913	0.9509902121921873	0	-13.18929050279145	0	76.58551925477543	44.91508651380011	0	0	46.14924409584135	-0.7052532271838131	-36.5884380900754	0.003611199277270503	44.91508651380011	0	0
33	-0.9224671908280335	0.1815468464365419	88.83596126060912	0	0.9399999999999999	0	43.61471868575661	-10.32889987799802	0	60.02855561456425	1.047695940690674	-5.07651005239373	0	0	43.61471868575661	-10.32889987799802	0	60.02855561456425	1.047695940690674	-5.07651005239373	0	0	-0.4501297324637031	-1.742788441899206	1.844762262698571	0	-13.18954045231423	0	76.58509454328096	44.91514877755984	0	0	46.14415208206952	-0.6988354700484454	-36.58249713069989	0.003610741438974534	44.91514877755984	0	0
34	-0.3748962435903763	0.5486746458531613	89.7269345394179	0	0.9399999999999999	0	43.61512872335475	-10.32856354379412	0	60.02854895471521	1.047695824454381	-5.076408206696538	0	0	43.61512872335475	-10.32856354379412	0	60.02854895471521	1.047695824454381	-5.076408206696538	0	0	-0.8430736386102244	-1.192580809562638	0.9599347662790402	0	-13.18981657456976	0	76.58462536800842	44.91521753981063	0	0	46.14291526533956	-0.6931617543044324	-36.59305628557249	0.003611363126299703	44.91521753981063	0	0
35	-0.9247865201580204	0.1720479849812406	88.82307620912806	0	0.9399999999999999	0	43.61554489181471	-10.32822186020348	0	60.0285422042538	1.047695706636603	-5.076304741822936	0	0	43.61554489181471	-10.32822186020348	0	60.0285422042538	1.047695706636603	-5.076304741822936	0	0	-0.4436292682909735	-1.753251607616411	1.858542301337192	0	-13.19009658795222	0	76.5841491775514	44.91528739073279	0	0	46.15214508009906	-0.7061176724719298	-36.57963290208887	0.003610936496182755	44.91528739073279	0	0
36	-0.925641644414593	0.1822905755837239	88.82088378528314	0	0.9399999999999999	0	43.61583634174632	-10.32798035090191	0	60.02853751493654	1.047695624792577	-5.076231496298771	0	0	43.61583634174632	-10.32798035090191	0	60.02853751493654	1.047695624792577	-5.076231496298771	0	0	-0.4525042429111436	-1.748134760083812	1.869385798370889	0	-13.19029157191096	0	76.58381569262505	44.91533668794271	0	0	45.86516823028433	-0.9788788442708124	-37.00281790421782	0.00358474064753525	44.91533668794271	0	0
